<?xml version="1.0" encoding="utf-8"?>
<!-- Generator: Adobe Illustrator 23.0.3, SVG Export Plug-In . SVG Version: 6.00 Build 0)  -->
<svg version="1.1" id="Capa_1" xmlns="http://www.w3.org/2000/svg" xmlns:xlink="http://www.w3.org/1999/xlink" x="0px" y="0px"
	 viewBox="0 0 443 117" style="enable-background:new 0 0 443 117;" xml:space="preserve">
<style type="text/css">
	.st0{fill:#E94949;}
</style>
<g>
	<path class="st0" d="M23.2,22.8h55.6l-6,19.4h-2.1c0.7-2.8,1-5.4,1-7.6c0-2.6-0.8-4.6-2.4-5.9c-1.2-1-4.4-1.5-9.4-1.5h-5.8
		L39.7,77.6c-1.8,6.3-2.8,10.2-2.8,11.7c0,1.4,0.6,2.5,1.7,3.4c1.2,0.9,3.2,1.3,6.1,1.3h2.5l-0.6,2H14.8l0.6-2h1.4
		c2.8,0,5-0.4,6.5-1.3c1-0.6,2-1.7,2.8-3.3c0.8-1.6,2-5,3.5-10.2l15.2-52h-4.4c-4.2,0-7.6,0.5-10.2,1.6c-2.6,1.1-4.7,2.6-6.2,4.7
		c-1.6,2.1-2.9,5-3.9,8.7h-2L23.2,22.8z"/>
	<path class="st0" d="M101,19.3L85.8,71.7c6.5-9.9,11.7-16.4,15.3-19.6s7.2-4.9,10.5-4.9c1.7,0,3.2,0.6,4.3,1.8
		c1.2,1.2,1.7,2.8,1.7,4.8c0,2.4-0.5,5.3-1.5,8.6L109.6,85c-0.8,2.7-1.2,4.2-1.2,4.5c0,0.5,0.2,0.9,0.5,1.2c0.3,0.3,0.7,0.5,1.1,0.5
		c0.5,0,1-0.2,1.6-0.7c2.1-1.6,4.1-3.8,6.1-6.6l1.7,1c-1.2,1.9-2.9,4-5.1,6.3c-2.2,2.3-4,3.9-5.6,4.8c-1.6,0.9-3,1.3-4.2,1.3
		c-1.3,0-2.4-0.4-3.3-1.3c-0.8-0.8-1.3-1.9-1.3-3.3c0-1.6,0.6-4.5,1.9-8.9l6.2-21.6c0.8-2.7,1.2-4.8,1.2-6.4c0-0.7-0.2-1.3-0.7-1.7
		c-0.5-0.4-1-0.6-1.8-0.6c-1,0-2.2,0.4-3.6,1.2c-2.4,1.5-5.3,4.3-8.5,8.4c-0.9,1.1-3.7,5.6-8.6,13.5c-1.5,2.5-2.8,5.3-3.7,8.3
		L78.8,96h-8.1l17.8-61.8l1.9-6.7c0-0.9-0.4-1.8-1.2-2.5c-0.8-0.7-1.7-1.1-2.8-1.1c-0.6,0-1.6,0.1-3,0.3l-1.1,0.2v-2.1L101,19.3z"/>
	<path class="st0" d="M137,75.7c-0.3,1.8-0.4,3.3-0.4,4.5c0,3.2,1.1,5.9,3.4,8.2c2.3,2.2,5,3.4,8.3,3.4c2.6,0,5.1-0.5,7.5-1.6
		c2.4-1.1,5.9-3.4,10.7-7l1.1,1.6c-8.5,8.5-16.7,12.7-24.4,12.7c-5.3,0-9.2-1.7-11.9-5c-2.7-3.3-4-7-4-11c0-5.4,1.7-10.8,5-16.5
		c3.3-5.6,7.5-10,12.5-13.1c5-3.1,10.1-4.7,15.4-4.7c3.8,0,6.6,0.8,8.5,2.3c1.8,1.5,2.8,3.4,2.8,5.5c0,3-1.2,5.8-3.6,8.6
		c-3.1,3.6-7.7,6.4-13.8,8.6C149.9,73.7,144.3,74.9,137,75.7z M137.3,73c5.3-0.6,9.7-1.7,13-3.1c4.4-2,7.7-4.3,10-7.1
		c2.2-2.8,3.3-5.4,3.3-7.9c0-1.5-0.5-2.7-1.4-3.7c-1-0.9-2.3-1.4-4.1-1.4c-3.7,0-7.6,2-11.7,5.9C142.3,59.7,139.3,65.4,137.3,73z"/>
	<path class="st0" d="M201.3,97.7l6-27.2h1.8c-0.3,2.6-0.4,4.8-0.4,6.5c0,4.9,1.6,8.9,4.7,12c3.1,3.1,7.3,4.6,12.3,4.6
		c4.7,0,8.3-1.4,10.7-4.3c2.4-2.9,3.7-6.2,3.7-10c0-2.4-0.6-4.7-1.7-6.7c-1.7-3-6.2-8.2-13.5-15.8c-3.6-3.6-5.8-6.3-6.9-8
		c-1.7-2.9-2.5-6-2.5-9.2c0-5.1,1.9-9.5,5.7-13.1c3.8-3.6,8.7-5.5,14.7-5.5c2,0,3.9,0.2,5.7,0.6c1.1,0.2,3.1,0.9,6.1,2.2
		c2.1,0.8,3.2,1.3,3.5,1.3c0.5,0.1,1.1,0.2,1.7,0.2c1,0,1.9-0.3,2.7-0.8c0.8-0.5,1.6-1.7,2.6-3.5h2.1l-5.6,24.3H253
		c0.1-2.2,0.2-3.9,0.2-5.2c0-4.4-1.4-7.9-4.3-10.7c-2.9-2.8-6.7-4.2-11.4-4.2c-3.7,0-6.8,1.1-9.1,3.3c-2.3,2.2-3.5,4.7-3.5,7.6
		c0,2.5,0.7,4.9,2.2,7.2c1.5,2.3,4.9,6,10.3,11.2c5.4,5.2,8.9,9.2,10.4,12.1c1.6,2.9,2.4,6,2.4,9.3c0,3.7-1,7.3-2.9,10.8
		c-2,3.5-4.8,6.2-8.4,8.1c-3.7,1.9-7.7,2.9-12,2.9c-2.2,0-4.2-0.2-6-0.6c-1.9-0.4-4.9-1.4-9-2.9c-1.4-0.5-2.6-0.8-3.5-0.8
		c-2.1,0-3.8,1.4-5,4.3H201.3z"/>
	<path class="st0" d="M284.5,33.8l-4.2,14.7h8.5l-0.9,3.4h-8.4l-9.3,31.8c-1,3.4-1.5,5.6-1.5,6.6c0,0.6,0.1,1.1,0.4,1.4
		c0.3,0.3,0.6,0.5,1,0.5c0.9,0,2.1-0.6,3.6-1.9c0.9-0.7,2.8-2.9,5.8-6.6l1.8,1.3c-3.3,4.8-6.4,8.2-9.4,10.2c-2,1.4-4,2.1-6.1,2.1
		c-1.6,0-2.9-0.5-3.9-1.5c-1-1-1.5-2.3-1.5-3.8c0-1.9,0.6-4.9,1.7-8.9l9-31.3h-8.2l0.5-2.1c4-1.1,7.3-2.7,9.9-4.8
		c2.6-2.1,5.6-5.9,8.8-11.1H284.5z"/>
	<path class="st0" d="M337.6,64.1c0,5.4-1.4,10.7-4.3,16c-2.9,5.3-6.8,9.5-12,12.6c-5.1,3.1-10.1,4.6-14.9,4.6
		c-4.9,0-9-1.6-12.1-4.7c-3.1-3.1-4.7-7.2-4.7-12.2c0-5.3,1.5-10.6,4.6-15.9c3-5.3,7.1-9.5,12.2-12.6c5.1-3.1,10-4.6,14.8-4.6
		s8.7,1.6,11.7,4.7C336.1,55,337.6,59.1,337.6,64.1z M328.6,60.4c0-3.3-0.8-5.9-2.5-7.7c-1.6-1.8-3.8-2.7-6.3-2.7
		c-5.3,0-10.2,3.8-14.6,11.4c-4.4,7.6-6.7,15.1-6.7,22.6c0,3.4,0.9,6.1,2.6,7.9c1.7,1.9,3.9,2.8,6.5,2.8c5.1,0,9.8-3.8,14.3-11.3
		C326.4,75.8,328.6,68.1,328.6,60.4z"/>
	<path class="st0" d="M347.5,50.2l18.6-3l-7.8,26.2c6.3-10.8,12-18.3,17.2-22.6c2.9-2.4,5.3-3.7,7.1-3.7c1.2,0,2.1,0.4,2.8,1.1
		c0.7,0.7,1,1.7,1,3c0,2.4-0.6,4.6-1.8,6.8c-0.9,1.6-2.1,2.4-3.7,2.4c-0.8,0-1.5-0.3-2.1-0.8c-0.6-0.5-1-1.4-1.1-2.5
		c-0.1-0.7-0.2-1.1-0.5-1.3c-0.3-0.3-0.6-0.4-1-0.4c-0.6,0-1.2,0.1-1.7,0.4c-0.9,0.5-2.4,1.9-4.3,4.2c-3,3.5-6.2,8.1-9.7,13.7
		c-1.5,2.4-2.8,5.1-3.9,8c-1.5,4.1-2.4,6.6-2.6,7.4l-1.7,6.8H344l10-33.5c1.2-3.9,1.7-6.7,1.7-8.3c0-0.6-0.3-1.2-0.8-1.6
		c-0.7-0.6-1.7-0.9-2.9-0.9c-0.8,0-2.1,0.2-4.2,0.5L347.5,50.2z"/>
	<path class="st0" d="M393.9,75.7c-0.3,1.8-0.4,3.3-0.4,4.5c0,3.2,1.1,5.9,3.4,8.2c2.3,2.2,5,3.4,8.3,3.4c2.6,0,5.1-0.5,7.5-1.6
		c2.4-1.1,5.9-3.4,10.7-7l1.1,1.6c-8.5,8.5-16.7,12.7-24.4,12.7c-5.3,0-9.2-1.7-11.9-5c-2.7-3.3-4-7-4-11c0-5.4,1.7-10.8,5-16.5
		c3.3-5.6,7.5-10,12.5-13.1c5-3.1,10.1-4.7,15.4-4.7c3.8,0,6.6,0.8,8.5,2.3c1.8,1.5,2.8,3.4,2.8,5.5c0,3-1.2,5.8-3.6,8.6
		c-3.1,3.6-7.7,6.4-13.8,8.6C406.8,73.7,401.2,74.9,393.9,75.7z M394.2,73c5.3-0.6,9.7-1.7,13-3.1c4.4-2,7.7-4.3,10-7.1
		c2.2-2.8,3.3-5.4,3.3-7.9c0-1.5-0.5-2.7-1.4-3.7c-1-0.9-2.3-1.4-4.1-1.4c-3.7,0-7.6,2-11.7,5.9C399.2,59.7,396.2,65.4,394.2,73z"/>
</g>
</svg>
